<?xml version="1.0" standalone="no"?>
<!DOCTYPE svg PUBLIC "-//W3C//DTD SVG 20010904//EN"
 "http://www.w3.org/TR/2001/REC-SVG-20010904/DTD/svg10.dtd">
<svg version="1.0" xmlns="http://www.w3.org/2000/svg"
 width="1200.000000pt" height="378.000000pt" viewBox="0 0 1200.000000 378.000000"
 preserveAspectRatio="xMidYMid meet">
<metadata>
Created by potrace 1.14, written by Peter Selinger 2001-2017
</metadata>
<g transform="translate(0.000000,378.000000) scale(0.100000,-0.100000)"
fill="#ff0000" stroke="none">
<path d="M1285 3455 c-102 -19 -207 -43 -230 -54 -11 -4 -47 -18 -80 -30 -146
-54 -279 -131 -414 -240 -294 -238 -494 -590 -543 -956 -22 -160 -11 -417 22
-555 6 -25 14 -58 16 -75 3 -16 9 -39 14 -50 4 -11 13 -36 20 -55 16 -48 23
-62 69 -160 149 -318 425 -583 753 -725 68 -29 134 -55 148 -58 14 -3 50 -12
80 -21 133 -36 178 -41 375 -41 196 0 236 4 380 41 33 8 71 18 85 21 53 13
255 105 328 150 253 155 455 376 579 632 25 53 50 106 54 119 5 12 13 32 18
45 5 12 12 33 16 47 3 14 11 41 16 60 30 103 58 290 58 390 1 102 -29 311 -59
415 -6 22 -14 52 -17 68 -3 15 -9 30 -14 33 -5 3 -9 12 -9 21 0 9 -27 71 -59
137 -227 461 -643 764 -1161 846 -89 14 -359 11 -445 -5z m383 -444 c75 -38
313 -157 527 -265 215 -108 396 -204 403 -215 10 -14 13 -141 15 -577 1 -308
-1 -569 -6 -580 -8 -22 -158 -104 -190 -104 -9 0 -54 18 -100 40 -76 37 -85
44 -95 79 -8 26 -10 120 -5 319 4 168 3 282 -3 282 -5 0 -118 -55 -251 -121
l-243 -122 0 -407 0 -407 -22 -21 c-30 -27 -128 -78 -167 -87 -24 -5 -47 2
-106 31 -123 61 -115 26 -115 491 l0 400 -167 84 c-93 46 -169 87 -171 92 -2
4 -11 7 -20 7 -9 0 -28 9 -42 20 -14 11 -33 20 -42 20 -9 0 -20 5 -23 10 -21
34 -25 -14 -25 -294 l0 -303 -24 -25 c-14 -13 -35 -29 -48 -35 -13 -5 -43 -20
-66 -32 -24 -11 -54 -21 -65 -21 -28 0 -152 62 -183 91 l-24 22 0 567 c0 538
1 568 18 584 24 21 1070 546 1089 546 8 0 76 -31 151 -69z"/>
<path d="M1083 2717 c-232 -117 -422 -216 -422 -222 0 -5 192 -106 427 -223
l427 -214 434 218 434 217 -24 18 c-13 10 -27 19 -32 19 -4 0 -187 90 -407
200 -220 110 -404 200 -408 199 -4 0 -197 -96 -429 -212z m560 131 c66 -25 93
-42 137 -87 55 -55 100 -132 100 -170 0 -11 5 -23 10 -26 6 -3 10 -35 10 -70
0 -35 -4 -67 -10 -70 -5 -3 -10 -15 -10 -26 0 -33 -40 -107 -86 -158 -58 -64
-155 -113 -215 -109 -38 3 -44 7 -47 27 -2 13 1 28 7 34 20 20 12 65 -19 99
-30 33 -38 62 -20 73 6 3 10 10 10 14 0 14 -88 71 -109 71 -14 0 -30 18 -55
59 -37 64 -49 117 -28 130 9 5 12 24 10 52 -3 39 -6 44 -30 47 -22 3 -33 -5
-62 -45 -20 -26 -36 -55 -36 -63 0 -9 -6 -22 -12 -29 -17 -16 -16 -203 1 -209
6 -2 11 -9 11 -16 0 -18 24 -66 33 -66 4 0 7 -5 7 -12 0 -16 60 -78 76 -78 6
0 17 -7 24 -15 17 -20 68 -43 105 -47 37 -4 40 -22 4 -26 -45 -5 -136 43 -194
103 -48 49 -64 74 -95 150 -10 24 -7 202 4 230 45 117 122 190 255 242 79 30
128 28 224 -9z m-343 -342 c0 -3 -4 -8 -10 -11 -5 -3 -10 -1 -10 4 0 6 5 11
10 11 6 0 10 -2 10 -4z"/>
<path d="M1423 2829 c-18 -5 -33 -14 -33 -20 0 -16 31 -23 40 -9 4 7 19 13 34
13 15 0 26 5 26 13 0 16 -20 17 -67 3z"/>
<path d="M1628 2798 c15 -15 16 -85 0 -94 -6 -4 -19 4 -30 19 -39 53 -56 72
-63 66 -3 -4 1 -14 10 -22 8 -9 15 -25 15 -37 0 -24 14 -41 48 -59 26 -14 29
-41 5 -41 -20 0 -89 -71 -99 -102 -5 -17 0 -27 21 -44 24 -19 25 -22 9 -28
-12 -5 -23 -1 -30 8 -6 9 -17 16 -24 16 -10 0 -10 3 0 15 10 12 7 15 -14 21
-14 3 -33 4 -41 0 -22 -8 -18 -36 4 -36 11 0 30 -12 43 -28 20 -24 30 -28 84
-28 46 0 68 -6 91 -22 17 -12 39 -22 50 -22 10 0 26 -7 36 -14 19 -14 23 -36
7 -36 -5 0 -10 -8 -10 -17 0 -19 -98 -118 -138 -139 l-27 -14 33 0 c17 0 32 5
32 10 0 6 11 10 25 10 14 0 25 3 25 8 0 4 20 20 44 35 44 28 57 43 97 113 23
42 20 90 -9 134 -10 16 -16 49 -17 89 0 41 -5 66 -13 69 -7 2 -12 13 -12 23 0
11 -12 31 -26 44 -23 22 -25 27 -13 42 12 15 12 16 -4 10 -12 -4 -20 -1 -24
11 -9 26 -45 52 -72 52 -20 0 -22 -3 -13 -12z m39 -60 c-3 -7 -5 -2 -5 12 0
14 2 19 5 13 2 -7 2 -19 0 -25z m103 -238 c0 -5 -2 -10 -4 -10 -3 0 -8 5 -11
10 -3 6 -1 10 4 10 6 0 11 -4 11 -10z m0 -110 c0 -5 -5 -10 -11 -10 -5 0 -7 5
-4 10 3 6 8 10 11 10 2 0 4 -4 4 -10z"/>
<path d="M1484 2709 c-3 -6 1 -18 10 -27 15 -15 16 -14 16 11 0 27 -13 36 -26
16z"/>
<path d="M560 2331 l0 -49 378 -189 c207 -104 387 -195 400 -201 12 -7 31 -16
42 -22 11 -5 28 -14 38 -19 9 -5 35 -18 57 -29 l40 -21 475 238 475 237 3 53
c2 29 -1 51 -5 50 -4 -2 -118 -60 -253 -128 -135 -67 -317 -159 -405 -203 -88
-44 -186 -93 -218 -109 -32 -16 -65 -29 -72 -29 -7 0 -224 106 -482 235 -257
129 -469 235 -470 235 -2 0 -3 -22 -3 -49z"/>
<path d="M560 1781 l0 -339 31 -12 c24 -10 35 -10 55 0 l24 13 0 313 0 313
-51 25 c-28 15 -53 26 -55 26 -2 0 -4 -152 -4 -339z"/>
<path d="M2408 2094 l-48 -25 0 -313 0 -314 31 -12 c24 -10 35 -10 55 0 l24
13 0 339 c0 186 -3 338 -7 337 -5 0 -29 -12 -55 -25z"/>
<path d="M1462 1333 l3 -338 27 -13 c20 -9 32 -10 52 -1 l26 12 0 339 c0 312
-4 362 -25 328 -3 -5 -17 -10 -30 -10 -13 0 -27 5 -30 10 -22 35 -25 -14 -23
-327z"/>
<path d="M6935 2707 c-49 -5 -110 -14 -135 -21 l-45 -12 0 -819 0 -820 95 -3
c52 -2 105 0 117 3 l23 5 2 323 3 322 162 3 162 2 54 -67 c125 -157 264 -368
342 -520 38 -74 36 -73 159 -73 61 0 116 4 123 8 9 6 7 18 -7 50 -49 108 -215
369 -346 544 -52 68 -70 99 -61 105 7 4 38 20 70 35 107 51 199 157 235 271
25 80 22 244 -8 327 -59 168 -194 274 -405 319 -152 32 -345 39 -540 18z m480
-222 c85 -22 121 -41 166 -86 57 -57 72 -99 73 -204 1 -131 -32 -199 -122
-248 -76 -41 -161 -56 -360 -64 l-182 -6 2 309 3 309 35 7 c61 12 320 1 385
-17z"/>
<path d="M3384 2688 c-8 -12 -9 -24 -48 -478 -26 -304 -49 -643 -66 -974 -8
-149 -7 -192 3 -198 20 -13 201 -10 215 4 8 8 12 48 12 113 0 169 31 753 57
1068 l6 79 30 -49 c25 -38 237 -481 292 -608 13 -30 34 -78 75 -170 12 -27 28
-63 35 -80 7 -16 22 -51 34 -77 l21 -48 95 0 95 0 30 65 c17 36 30 68 30 70 0
2 11 28 24 57 13 29 33 73 44 98 49 111 67 150 99 220 19 41 51 109 70 150 71
153 167 341 178 350 13 11 15 -8 35 -280 15 -206 40 -732 40 -845 0 -65 4
-105 12 -113 14 -14 195 -17 215 -4 10 6 11 47 3 193 -16 277 -48 734 -71
1004 -11 132 -24 285 -28 340 -4 56 -11 106 -15 113 -5 8 -40 12 -107 12 l-99
0 -30 -47 c-31 -49 -243 -468 -292 -578 -15 -33 -44 -96 -63 -140 -47 -102
-71 -156 -102 -225 -13 -30 -34 -77 -46 -103 l-23 -49 -23 54 c-34 75 -65 145
-91 203 -53 119 -73 165 -108 240 -61 133 -276 557 -305 603 l-27 42 -100 0
c-65 0 -101 -4 -106 -12z"/>
<path d="M5392 1868 l3 -833 530 0 530 0 3 102 3 103 -418 2 -418 3 -3 282 -2
283 347 2 348 3 0 95 0 95 -347 3 -348 2 0 240 c0 184 3 240 13 242 6 1 181 2
387 2 l375 1 3 103 3 102 -506 0 -505 0 2 -832z"/>
<path d="M8255 2688 c-3 -7 -4 -382 -3 -833 l3 -820 95 -3 c52 -2 105 0 118 3
l22 5 -2 828 -3 827 -113 3 c-84 2 -114 -1 -117 -10z"/>
<path d="M9367 2682 c-9 -10 -17 -23 -17 -28 0 -5 -18 -46 -40 -92 -22 -45
-40 -84 -40 -87 0 -2 -13 -34 -30 -70 -16 -36 -30 -68 -30 -70 0 -3 -10 -27
-21 -53 -12 -26 -27 -60 -34 -77 -19 -44 -200 -503 -245 -620 -21 -55 -49
-129 -63 -165 -14 -36 -41 -110 -62 -165 -20 -55 -45 -123 -57 -152 -11 -29
-17 -57 -13 -62 8 -14 232 -15 240 -1 7 11 77 209 122 343 l26 77 376 -2 376
-3 45 -135 c70 -204 92 -264 102 -277 13 -16 244 -18 253 -2 4 5 -7 46 -24 90
-29 74 -47 122 -120 317 -186 497 -387 986 -491 1197 l-25 50 -106 3 c-92 2
-107 0 -122 -16z m245 -572 c28 -69 54 -136 58 -150 5 -14 31 -85 59 -158 28
-74 51 -135 51 -138 0 -2 -135 -4 -300 -4 -200 0 -300 3 -300 10 0 9 29 89 77
215 8 22 28 75 43 117 16 42 36 94 45 115 20 44 32 71 75 173 17 41 38 86 47
99 15 23 16 22 55 -65 22 -49 62 -145 90 -214z"/>
<path d="M10475 2688 c-8 -22 0 -1632 9 -1646 5 -9 118 -12 501 -12 440 0 494
2 499 16 9 24 7 177 -3 192 -7 11 -80 14 -385 12 l-376 -1 0 726 0 725 -120 0
c-87 0 -122 -3 -125 -12z"/>
</g>
</svg>
